<?xml version="1.0" encoding="UTF-8"?> <svg xmlns:inkscape="http://www.inkscape.org/namespaces/inkscape" xmlns:sodipodi="http://sodipodi.sourceforge.net/DTD/sodipodi-0.dtd" xmlns:svg="http://www.w3.org/2000/svg" xmlns="http://www.w3.org/2000/svg" xmlns:xlink="http://www.w3.org/1999/xlink" version="1.1" id="svg2" sodipodi:docname="Cook-logo-h-4c.eps" x="0px" y="0px" viewBox="0 0 467.7 146.6" style="enable-background:new 0 0 467.7 146.6;" xml:space="preserve"> <style type="text/css"> .st0{fill:#145194;} .st1{fill:#6EC72E;} .st2{fill:#F89C22;} .st3{fill:#272324;} </style> <path id="path12" class="st0" d="M31.7,92.5V53.8l-25.2-15v70.3l57.9,34.3v-1.8v-29.9L31.7,92.5"></path> <path id="path14" class="st1" d="M64.4,4.6L6.5,38.8l25.2,15l32.6-19.3L97,53.8l25.2-15L64.4,4.6"></path> <path id="path16" class="st2" d="M64.4,111.8v31.7l57.9-34.3V77.5L64.4,111.8"></path> <path id="path18" class="st3" d="M206.2,60l7.2,14.3c0,0-8.3,6.8-24.4,6.8c-21,0-40.2-17-40.2-38.2c0-21.3,19.2-38.4,40.2-38.4 c16.1,0,24.4,6.8,24.4,6.8l-7.2,14.3c0,0-5.9-4.6-14.6-4.6c-17,0-24.5,11.8-24.5,21.7c0,9.9,7.5,21.8,24.5,21.8 C200.2,64.6,206.2,60,206.2,60"></path> <path id="path20" class="st3" d="M259.1,64.9c13.5,0,19.1-11,19.1-22c0-11-5.9-22-19.1-22c-13,0-19.2,11-19.2,22 S245.2,64.9,259.1,64.9L259.1,64.9z M259.1,4.6c20.6,0,37.4,16.7,37.4,38.3c0,21.6-16,38.3-37.4,38.3c-22,0-37.4-16.8-37.4-38.3 C221.6,21.2,238.6,4.6,259.1,4.6"></path> <path id="path22" class="st3" d="M345,64.9c13.5,0,19.1-11,19.1-22c0-11-5.9-22-19.1-22c-13,0-19.2,11-19.2,22S331.2,64.9,345,64.9 L345,64.9z M345,4.6c20.6,0,37.4,16.7,37.4,38.3c0,21.6-16,38.3-37.4,38.3c-22,0-37.4-16.8-37.4-38.3C307.6,21.2,324.6,4.6,345,4.6"></path> <path id="path24" class="st3" d="M440.1,79.8l-27.4-31.4v31.4h-16.9V5.9h16.9v30.2l25.5-30.2h20.5l-29.9,35l34.6,38.9H440.1"></path> <path id="path26" class="st3" d="M181.6,127.9c0-2.4-2.8-4.1-8.3-5.1h-0.1c-2.5-0.5-4.6-1.1-6.4-2c-1.8-0.8-3.1-1.9-3.9-3.3 c-0.8-1.3-1.3-2.7-1.3-4.1c0-2.7,1.2-5,3.6-6.7c2.4-1.8,5.2-2.6,8.3-2.6c1.4,0,2.8,0.2,4.2,0.7c1.5,0.5,2.5,0.9,3.2,1.3 c0.7,0.4,1.6,1,2.8,1.7c0.5,0.4,0.9,0.9,1,1.5c0.1,0.7,0,1.3-0.3,1.8c-0.4,0.5-0.9,0.9-1.5,1c-0.7,0.2-1.3,0-1.8-0.4 c-1.5-1-2.8-1.7-3.9-2.3c-1.2-0.5-2.4-0.8-3.7-0.8c-2.1,0-3.8,0.5-5.1,1.5c-1.3,1-2,2-2,3.1c0,0.5,0.1,1,0.4,1.4 c0.9,1.5,3.3,2.5,7.1,3.2h0.1c2.6,0.5,4.8,1.2,6.5,2c3.9,1.9,5.9,4.6,5.9,7.9c0,2.9-1.3,5.3-3.9,7.2c-2.6,1.9-5.6,2.8-8.9,2.8 c-4.1,0-8.2-1.6-12.1-4.7c-0.5-0.4-0.8-1-0.9-1.6c-0.1-0.7,0.1-1.3,0.5-1.8c0.4-0.5,1-0.8,1.7-0.9c0.7-0.1,1.3,0.1,1.8,0.5 c3,2.4,6,3.7,9,3.6c2.4,0,4.3-0.5,5.7-1.6C180.8,130.3,181.6,129.1,181.6,127.9"></path> <path id="path28" class="st3" d="M229.4,105.3c0.7-0.1,1.3,0.1,1.9,0.5c0.6,0.4,0.9,1,1,1.7c0.1,0.7,0,1.3-0.4,1.9l-9.7,13.2v12.7 c0,0.7-0.2,1.3-0.8,1.8c-0.5,0.5-1.1,0.8-1.8,0.8c-0.7,0-1.3-0.2-1.8-0.8c-0.5-0.5-0.8-1.1-0.8-1.8v-12.7l-9.6-13.2 c-0.4-0.6-0.6-1.2-0.5-1.9c0.1-0.7,0.4-1.2,1-1.7c0.6-0.4,1.2-0.6,1.9-0.5c0.7,0.1,1.2,0.5,1.7,1.1l8.1,11l8.1-11 C228.1,105.8,228.7,105.4,229.4,105.3"></path> <path id="path30" class="st3" d="M273.6,127.9c0-2.4-2.8-4.1-8.3-5.1h-0.1c-2.4-0.5-4.6-1.1-6.4-2c-1.8-0.8-3.1-1.9-3.9-3.3 c-0.8-1.3-1.3-2.7-1.3-4.1c0-2.7,1.2-5,3.6-6.7c2.4-1.8,5.2-2.6,8.3-2.6c1.4,0,2.8,0.2,4.3,0.7c1.4,0.5,2.5,0.9,3.2,1.3 c0.7,0.4,1.6,1,2.8,1.7c0.5,0.4,0.9,0.9,1,1.5c0.1,0.7,0,1.3-0.3,1.8c-0.4,0.5-0.9,0.9-1.5,1c-0.7,0.2-1.3,0-1.8-0.4 c-1.5-1-2.8-1.7-4-2.3c-1.1-0.5-2.4-0.8-3.7-0.8c-2.1,0-3.8,0.5-5.1,1.5c-1.3,1-2,2-2,3.1c0,0.5,0.1,1,0.4,1.4 c0.9,1.5,3.3,2.5,7.1,3.2h0.1c2.7,0.5,4.8,1.2,6.5,2c3.9,1.9,5.9,4.6,5.9,7.9c0,2.9-1.3,5.3-3.9,7.2c-2.6,1.9-5.6,2.8-8.9,2.8 c-4.1,0-8.2-1.6-12.1-4.7c-0.5-0.4-0.8-1-0.9-1.6c-0.1-0.7,0.1-1.3,0.5-1.8c0.4-0.5,0.9-0.8,1.6-0.9c0.7-0.1,1.3,0.1,1.8,0.5 c3,2.4,6,3.7,9,3.6c2.4,0,4.3-0.5,5.8-1.6C272.9,130.3,273.6,129.1,273.6,127.9"></path> <path id="path32" class="st3" d="M323.6,105.7c0.5,0.5,0.8,1.1,0.8,1.8c0,0.7-0.3,1.4-0.8,1.9c-0.5,0.5-1.1,0.8-1.8,0.8h-7.5v25.1 c0,0.7-0.2,1.3-0.8,1.8c-0.5,0.5-1.1,0.8-1.8,0.8c-0.7,0-1.4-0.2-1.9-0.8c-0.5-0.5-0.8-1.1-0.8-1.8v-25.1h-7.5 c-0.7,0-1.3-0.3-1.8-0.8c-0.5-0.5-0.8-1.1-0.8-1.9c0-0.7,0.3-1.3,0.8-1.8c0.5-0.5,1.1-0.8,1.8-0.8h20.2 C322.5,105,323.1,105.2,323.6,105.7"></path> <path id="path34" class="st3" d="M349.9,137.9c-0.7,0-1.3-0.2-1.8-0.8c-0.5-0.5-0.8-1.1-0.8-1.8v-27.8c0-0.7,0.3-1.3,0.8-1.8 c0.5-0.5,1.1-0.8,1.8-0.8h15.4c0.7,0,1.3,0.2,1.8,0.8c0.5,0.5,0.8,1.1,0.8,1.8c0,0.7-0.3,1.4-0.8,1.9c-0.5,0.5-1.1,0.8-1.8,0.8 h-12.8v8.6h11c0.7,0,1.3,0.3,1.8,0.8c0.5,0.5,0.8,1.1,0.8,1.8c0,0.7-0.3,1.3-0.8,1.8c-0.5,0.5-1.1,0.8-1.8,0.8h-11v8.6h12.8 c0.7,0,1.3,0.3,1.8,0.8c0.5,0.5,0.8,1.1,0.8,1.8c0,0.7-0.3,1.3-0.8,1.8c-0.5,0.5-1.1,0.8-1.8,0.8h-15.3H349.9L349.9,137.9"></path> <path id="path36" class="st3" d="M403.8,126h-0.1c-0.9,0-1.6-0.4-2.2-1.1l-6.8-9.4v19.8c0,0.7-0.3,1.3-0.8,1.8 c-0.5,0.5-1.1,0.8-1.9,0.8c-0.7,0-1.3-0.2-1.8-0.8c-0.5-0.5-0.8-1.1-0.8-1.8v-27.8c0-0.7,0.2-1.3,0.8-1.8c0.5-0.5,1.1-0.8,1.8-0.8 h0.1c0.9,0,1.6,0.4,2.1,1.1l9.4,13l9.4-13c0.5-0.7,1.2-1.1,2.1-1.1h0c0.7,0,1.4,0.3,1.9,0.8c0.5,0.5,0.8,1.1,0.8,1.8v27.8 c0,0.7-0.3,1.3-0.8,1.8c-0.5,0.5-1.1,0.8-1.9,0.8c-0.7,0-1.3-0.2-1.8-0.8c-0.5-0.5-0.8-1.1-0.8-1.8v-19.8l-6.8,9.4 C405.3,125.6,404.6,126,403.8,126"></path> <path id="path38" class="st3" d="M457.8,127.9c0-2.4-2.8-4.1-8.3-5.1h-0.1c-2.5-0.5-4.6-1.1-6.4-2c-1.8-0.8-3.1-1.9-3.9-3.3 c-0.8-1.3-1.3-2.7-1.3-4.1c0-2.7,1.2-5,3.6-6.7c2.4-1.8,5.2-2.6,8.3-2.6c1.4,0,2.8,0.2,4.3,0.7c1.4,0.5,2.5,0.9,3.2,1.3 c0.7,0.4,1.6,1,2.8,1.7c0.5,0.4,0.9,0.9,1,1.5c0.1,0.7,0,1.3-0.3,1.8c-0.4,0.5-0.9,0.9-1.5,1c-0.7,0.2-1.3,0-1.8-0.4 c-1.5-1-2.8-1.7-3.9-2.3c-1.2-0.5-2.4-0.8-3.7-0.8c-2.1,0-3.8,0.5-5.1,1.5c-1.3,1-2,2-2,3.1c0,0.5,0.1,1,0.4,1.4 c0.9,1.5,3.3,2.5,7.1,3.2h0.1c2.7,0.5,4.8,1.2,6.5,2c3.9,1.9,5.8,4.6,5.8,7.9c0,2.9-1.3,5.3-3.9,7.2c-2.6,1.9-5.6,2.8-8.9,2.8 c-4.1,0-8.2-1.6-12.1-4.7c-0.5-0.4-0.8-1-0.9-1.6c-0.1-0.7,0.1-1.3,0.5-1.8c0.4-0.5,1-0.8,1.6-0.9c0.7-0.1,1.3,0.1,1.8,0.5 c3,2.4,6,3.7,9,3.6c2.4,0,4.3-0.5,5.7-1.6C457,130.3,457.8,129.1,457.8,127.9"></path> </svg> 